<?xml version="1.0" encoding="utf-8"?>
<!-- Generator: Adobe Illustrator 27.2.0, SVG Export Plug-In . SVG Version: 6.00 Build 0)  -->
<svg version="1.1" id="Layer_1" xmlns="http://www.w3.org/2000/svg" xmlns:xlink="http://www.w3.org/1999/xlink" x="0px" y="0px"
	 viewBox="0 0 500 500" style="enable-background:new 0 0 500 500;" xml:space="preserve">
<style type="text/css">
	.st0{fill:#111111;}
</style>
<path class="st0" d="M250,473c-59.6,0-115.6-23.2-157.7-65.3S27,309.6,27,250S50.2,134.4,92.3,92.3S190.4,27,250,27
	s115.6,23.2,157.7,65.3S473,190.4,473,250s-23.2,115.6-65.3,157.7S309.6,473,250,473z M250,92c-87.1,0-158,70.9-158,158
	c0,87.1,70.9,158,158,158c87.1,0,158-70.9,158-158C408,162.9,337.1,92,250,92z"/>
<path class="st0" d="M68.9,463.6c-8.3,0-16.6-3.2-23-9.5c-12.7-12.7-12.7-33.3,0-46L408.1,45.9c12.7-12.7,33.3-12.7,46,0
	c12.7,12.7,12.7,33.3,0,46L91.9,454.1C85.5,460.4,77.2,463.6,68.9,463.6z"/>
</svg>
