<?xml version="1.0" encoding="utf-8"?>
<!-- Generator: Adobe Illustrator 27.2.0, SVG Export Plug-In . SVG Version: 6.00 Build 0)  -->
<svg version="1.1" id="Layer_1" xmlns="http://www.w3.org/2000/svg" xmlns:xlink="http://www.w3.org/1999/xlink" x="0px" y="0px"
	 viewBox="0 0 500 500" style="enable-background:new 0 0 500 500;" xml:space="preserve">
<style type="text/css">
	.st0{fill:#111111;}
</style>
<path class="st0" d="M383.6,168.3L244.8,319.2c-0.9,1-2.2,1.7-3.6,1.8l-42.6,4.7c-3,0.3-5.6-2.1-5.5-5.1l1.6-42.4
	c0.1-1.4,0.6-2.7,1.5-3.7l138.8-150.9c2.7-2.9,7.3-3.1,10.2-0.4l38,35C386.1,160.8,386.3,165.4,383.6,168.3z"/>
<path class="st0" d="M400.4,148.1l-46.7-42.9c-1-0.9-1.1-2.5-0.1-3.6l22-23.9c2.8-3,7.5-3.2,10.6-0.4l39.4,36.2
	c3,2.8,3.2,7.5,0.4,10.6l-22,23.9C403,149,401.5,149,400.4,148.1z"/>
<path class="st0" d="M364.1,250.8v144.1c0,2.2-1.7,3.9-3.9,3.9H101.9c-2.2,0-3.9-1.7-3.9-3.9V136.6c0-2.2,1.7-3.9,3.9-3.9h150.7
	c5.9,0,10.6-4.7,10.6-10.6v-3.8c0-5.9-4.7-10.6-10.6-10.6H101.9c-16,0-28.9,12.9-28.9,28.9v258.3c0,16,12.9,28.9,28.9,28.9h258.3
	c16,0,28.9-12.9,28.9-28.9V250.8c0-5.9-4.7-10.6-10.6-10.6h-3.8C368.8,240.2,364.1,244.9,364.1,250.8z"/>
</svg>
