<?xml version="1.0" encoding="utf-8"?>
<!-- Generator: Adobe Illustrator 27.2.0, SVG Export Plug-In . SVG Version: 6.00 Build 0)  -->
<svg version="1.1" id="Layer_1" xmlns="http://www.w3.org/2000/svg" xmlns:xlink="http://www.w3.org/1999/xlink" x="0px" y="0px"
	 viewBox="0 0 500 500" style="enable-background:new 0 0 500 500;" xml:space="preserve">
<style type="text/css">
	.st0{fill:#FFFFFF;}
	.st1{fill:#111111;}
</style>
<g>
	<path class="st0" d="M105.7,81.1v337.8c0,11.4,9.2,20.6,20.6,20.6h247.4c11.4,0,20.6-9.2,20.6-20.6V151.4c0-5.6-2.3-11-6.4-14.9
		l-73.4-70c-3.8-3.7-8.9-5.7-14.2-5.7l-174-0.3C114.9,60.4,105.7,69.7,105.7,81.1z"/>
	<path class="st1" d="M373.7,449.6H126.3c-16.9,0-30.6-13.7-30.6-30.6V81.1c0-8.2,3.2-15.9,9-21.7c5.8-5.8,13.5-9,21.7-9
		c0,0,0,0,0,0l174,0.3c7.9,0,15.4,3,21.1,8.5l73.4,70c6,5.8,9.5,13.8,9.5,22.2v267.5C404.3,435.8,390.6,449.6,373.7,449.6z
		 M126.3,70.4c-2.8,0-5.5,1.1-7.5,3.1c-2,2-3.1,4.7-3.1,7.5v337.8c0,5.9,4.8,10.6,10.6,10.6h247.4c5.9,0,10.6-4.8,10.6-10.6V151.4
		c0-2.9-1.2-5.7-3.3-7.7l-73.4-70c-2-1.9-4.6-2.9-7.3-2.9L126.3,70.4C126.3,70.4,126.3,70.4,126.3,70.4z"/>
</g>
<path class="st1" d="M343.8,249.2H156.2c-5.5,0-10-4.5-10-10s4.5-10,10-10h187.5c5.5,0,10,4.5,10,10S349.3,249.2,343.8,249.2z"/>
<path class="st1" d="M250,186.1h-93.8c-5.5,0-10-4.5-10-10s4.5-10,10-10H250c5.5,0,10,4.5,10,10S255.5,186.1,250,186.1z"/>
<path class="st1" d="M343.8,312.3H156.2c-5.5,0-10-4.5-10-10s4.5-10,10-10h187.5c5.5,0,10,4.5,10,10S349.3,312.3,343.8,312.3z"/>
<path class="st1" d="M343.8,375.4H156.2c-5.5,0-10-4.5-10-10s4.5-10,10-10h187.5c5.5,0,10,4.5,10,10S349.3,375.4,343.8,375.4z"/>
<path class="st1" d="M394.3,155.7h-94c-5.5,0-10-4.5-10-10v-85h20v75h84V155.7z"/>
</svg>
