<?xml version="1.0" encoding="utf-8"?>
<!-- Generator: Adobe Illustrator 27.2.0, SVG Export Plug-In . SVG Version: 6.00 Build 0)  -->
<svg version="1.1" id="Layer_1" xmlns="http://www.w3.org/2000/svg" xmlns:xlink="http://www.w3.org/1999/xlink" x="0px" y="0px"
	 viewBox="0 0 500 500" style="enable-background:new 0 0 500 500;" xml:space="preserve">
<style type="text/css">
	.st0{fill:#FFFFFF;}
	.st1{fill:#111111;}
</style>
<g>
	<path class="st0" d="M412.8,205.7v166.9c0,13.4-10.9,24.3-24.3,24.3h-277c-13.4,0-24.3-10.9-24.3-24.3V162.1
		c0-13.4,10.9-24.3,24.3-24.3h88.6c9.2,0,17.5,5.2,21.7,13.3l8.6,16.9c4.1,8.2,12.5,13.3,21.7,13.3h136.5
		C401.9,181.4,412.8,192.3,412.8,205.7z"/>
	<path class="st1" d="M388.5,406.9h-277c-18.9,0-34.3-15.4-34.3-34.3V162.1c0-18.9,15.4-34.3,34.3-34.3h88.6
		c13,0,24.7,7.2,30.6,18.8l8.6,16.9c2.4,4.8,7.3,7.8,12.7,7.8h136.5c18.9,0,34.3,15.4,34.3,34.3v166.9
		C422.8,391.5,407.4,406.9,388.5,406.9z M111.5,147.8c-7.9,0-14.3,6.4-14.3,14.3v210.5c0,7.9,6.4,14.3,14.3,14.3h277
		c7.9,0,14.3-6.4,14.3-14.3V205.7c0-7.9-6.4-14.3-14.3-14.3H252c-13,0-24.7-7.2-30.6-18.8l-8.6-16.9c-2.4-4.8-7.3-7.8-12.7-7.8
		H111.5z"/>
</g>
</svg>
