<?xml version="1.0" encoding="utf-8"?>
<!-- Generator: Adobe Illustrator 27.2.0, SVG Export Plug-In . SVG Version: 6.00 Build 0)  -->
<svg version="1.1" id="Layer_1" xmlns="http://www.w3.org/2000/svg" xmlns:xlink="http://www.w3.org/1999/xlink" x="0px" y="0px"
	 viewBox="0 0 500 500" style="enable-background:new 0 0 500 500;" xml:space="preserve">
<style type="text/css">
	.st0{fill:#111111;}
</style>
<path class="st0" d="M260.8,51.7l44.1,135.7c1.5,4.7,5.9,7.9,10.8,7.9h142.7c11,0,15.6,14.1,6.7,20.6l-115.4,83.9
	c-4,2.9-5.7,8.1-4.1,12.8l44.1,135.7c3.4,10.5-8.6,19.2-17.5,12.8l-115.4-83.9c-4-2.9-9.4-2.9-13.4,0L127.8,461
	c-8.9,6.5-21-2.2-17.5-12.8l44.1-135.7c1.5-4.7-0.1-9.8-4.1-12.8L34.8,215.9c-8.9-6.5-4.3-20.6,6.7-20.6h142.7
	c4.9,0,9.3-3.2,10.8-7.9l44.1-135.7C242.6,41.2,257.4,41.2,260.8,51.7z"/>
</svg>
