<?xml version="1.0" encoding="utf-8"?>
<!-- Generator: Adobe Illustrator 27.2.0, SVG Export Plug-In . SVG Version: 6.00 Build 0)  -->
<svg version="1.1" id="Layer_1" xmlns="http://www.w3.org/2000/svg" xmlns:xlink="http://www.w3.org/1999/xlink" x="0px" y="0px"
	 viewBox="0 0 500 500" style="enable-background:new 0 0 500 500;" xml:space="preserve">
<style type="text/css">
	.st0{fill:#111111;}
</style>
<path class="st0" d="M139.5,381.8l-23.7-23.7c-8.4-8.4-8.4-22.1,0-30.5l203.1-203.1c8.4-8.4,22.1-8.4,30.5,0l23.7,23.7
	c8.4,8.4,8.4,22.1,0,30.5L170,381.8C161.5,390.2,147.9,390.2,139.5,381.8z"/>
<path class="st0" d="M373.1,358.1l-23.7,23.7c-8.4,8.4-22.1,8.4-30.5,0L115.8,178.7c-8.4-8.4-8.4-22.1,0-30.5l23.7-23.7
	c8.4-8.4,22.1-8.4,30.5,0l203.1,203.1C381.5,336,381.5,349.7,373.1,358.1z"/>
</svg>
